# This file uses meters as units for non-parametric coordinates.

mtllib BeanCanMan.mtl
g default
v 67.811605 -100.000000 -28.088438
v 51.900770 -100.000000 -51.900708
v 28.088514 -100.000000 -67.811566
v 0.000037 -100.000000 -73.398728
v -28.088447 -100.000000 -67.811600
v -51.900720 -100.000000 -51.900764
v -67.811577 -100.000000 -28.088506
v -73.398733 -100.000000 -0.000026
v -67.811594 -100.000000 28.088458
v -51.900753 -100.000000 51.900731
v -28.088492 -100.000000 67.811583
v -0.000011 -100.000000 73.398733
v 28.088469 -100.000000 67.811588
v 51.900736 -100.000000 51.900748
v 67.811583 -100.000000 28.088480
v 73.398733 -100.000000 0.000000
v 67.811605 100.000000 -28.088438
v 51.900770 100.000000 -51.900708
v 28.088514 100.000000 -67.811566
v 0.000037 100.000000 -73.398728
v -28.088447 100.000000 -67.811600
v -51.900720 100.000000 -51.900764
v -67.811577 100.000000 -28.088506
v -73.398733 100.000000 -0.000026
v -67.811594 100.000000 28.088458
v -51.900753 100.000000 51.900731
v -28.088492 100.000000 67.811583
v -0.000011 100.000000 73.398733
v 28.088469 100.000000 67.811588
v 51.900736 100.000000 51.900748
v 67.811583 100.000000 28.088480
v 73.398733 100.000000 0.000000
v 0.000000 -100.000000 0.000000
v 0.000000 100.000000 0.000000
vt 0.777041 0.552969
vt 0.777019 0.475773
vt 0.747458 0.404462
vt 0.692856 0.349891
vt 0.621528 0.320369
vt 0.544332 0.320391
vt 0.473020 0.349952
vt 0.418450 0.404554
vt 0.388928 0.475882
vt 0.388950 0.553078
vt 0.418511 0.624390
vt 0.473112 0.678960
vt 0.544441 0.708482
vt 0.621637 0.708460
vt 0.692948 0.678899
vt 0.747519 0.624297
vt 0.000000 0.000017
vt 0.062500 0.000016
vt 0.124999 0.000015
vt 0.187499 0.000014
vt 0.249999 0.000013
vt 0.312498 0.000012
vt 0.374998 0.000011
vt 0.437498 0.000010
vt 0.499997 0.000009
vt 0.562497 0.000008
vt 0.624997 0.000006
vt 0.687496 0.000005
vt 0.749996 0.000004
vt 0.812496 0.000003
vt 0.874995 0.000002
vt 0.937495 0.000001
vt 0.999995 0.000000
vt 0.000006 0.320380
vt 0.062505 0.320379
vt 0.125005 0.320378
vt 0.187505 0.320377
vt 0.250004 0.320376
vt 0.312504 0.320375
vt 0.375004 0.320373
vt 0.437503 0.320372
vt 0.500003 0.320371
vt 0.562502 0.320370
vt 0.625002 0.320369
vt 0.687502 0.320368
vt 0.750001 0.320367
vt 0.812501 0.320366
vt 0.875001 0.320365
vt 0.937500 0.320364
vt 1.000000 0.320363
vt 0.388091 0.475764
vt 0.358522 0.404456
vt 0.303916 0.349890
vt 0.232585 0.320376
vt 0.155389 0.320405
vt 0.084080 0.349974
vt 0.029515 0.404581
vt -0.000000 0.475912
vt 0.000029 0.553108
vt 0.029598 0.624417
vt 0.084205 0.678982
vt 0.155536 0.708496
vt 0.232732 0.708467
vt 0.304041 0.678898
vt 0.358606 0.624292
vt 0.388121 0.552961
vt 0.582984 0.514426
vt 0.194060 0.514436
vn 0.923880 0.000000 -0.382683
vn 0.707107 0.000000 -0.707106
vn 0.707107 0.000000 -0.707106
vn 0.923880 0.000000 -0.382683
vn 0.382684 0.000000 -0.923879
vn 0.382684 0.000000 -0.923879
vn 0.000001 0.000000 -1.000000
vn 0.000001 0.000000 -1.000000
vn -0.382683 0.000000 -0.923880
vn -0.382683 0.000000 -0.923880
vn -0.707106 0.000000 -0.707107
vn -0.707106 0.000000 -0.707107
vn -0.923879 0.000000 -0.382684
vn -0.923879 0.000000 -0.382684
vn -1.000000 0.000000 -0.000000
vn -1.000000 0.000000 -0.000000
vn -0.923880 0.000000 0.382683
vn -0.923880 0.000000 0.382683
vn -0.707107 0.000000 0.707107
vn -0.707107 0.000000 0.707107
vn -0.382684 0.000000 0.923879
vn -0.382684 0.000000 0.923879
vn -0.000000 0.000000 1.000000
vn -0.000000 0.000000 1.000000
vn 0.382683 0.000000 0.923880
vn 0.382683 0.000000 0.923880
vn 0.707107 0.000000 0.707107
vn 0.707107 0.000000 0.707107
vn 0.923880 0.000000 0.382683
vn 0.923880 0.000000 0.382683
vn 1.000000 0.000000 0.000000
vn 1.000000 0.000000 0.000000
vn 0.000000 -1.000000 0.000000
vn 0.000000 -1.000000 0.000000
vn 0.000000 -1.000000 -0.000000
vn 0.000000 -1.000000 -0.000000
vn 0.000000 -1.000000 -0.000000
vn 0.000000 -1.000000 -0.000000
vn 0.000000 -1.000000 -0.000000
vn 0.000000 -1.000000 0.000000
vn 0.000000 -1.000000 0.000000
vn 0.000000 -1.000000 0.000000
vn 0.000000 -1.000000 0.000000
vn 0.000000 -1.000000 -0.000000
vn 0.000000 -1.000000 -0.000000
vn 0.000000 -1.000000 -0.000000
vn 0.000000 -1.000000 -0.000000
vn 0.000000 -1.000000 0.000000
vn 0.000000 -1.000000 0.000000
vn 0.000000 1.000000 0.000000
vn 0.000000 1.000000 0.000000
vn 0.000000 1.000000 0.000000
vn 0.000000 1.000000 0.000000
vn 0.000000 1.000000 0.000000
vn 0.000000 1.000000 -0.000000
vn 0.000000 1.000000 0.000000
vn 0.000000 1.000000 0.000000
vn 0.000000 1.000000 0.000000
vn 0.000000 1.000000 0.000000
vn 0.000000 1.000000 0.000000
vn 0.000000 1.000000 0.000000
vn 0.000000 1.000000 0.000000
vn 0.000000 1.000000 -0.000000
vn 0.000000 1.000000 0.000000
vn 0.000000 1.000000 0.000000
vn 0.000000 1.000000 0.000000
s 1
g BEANS
usemtl initialShadingGroup
f 1/17/1 2/18/2 18/35/3 17/34/4
f 2/18/2 3/19/5 19/36/6 18/35/3
f 3/19/5 4/20/7 20/37/8 19/36/6
f 4/20/7 5/21/9 21/38/10 20/37/8
f 5/21/9 6/22/11 22/39/12 21/38/10
f 6/22/11 7/23/13 23/40/14 22/39/12
f 7/23/13 8/24/15 24/41/16 23/40/14
f 8/24/15 9/25/17 25/42/18 24/41/16
f 9/25/17 10/26/19 26/43/20 25/42/18
f 10/26/19 11/27/21 27/44/22 26/43/20
f 11/27/21 12/28/23 28/45/24 27/44/22
f 12/28/23 13/29/25 29/46/26 28/45/24
f 13/29/25 14/30/27 30/47/28 29/46/26
f 14/30/27 15/31/29 31/48/30 30/47/28
f 15/31/29 16/32/31 32/49/32 31/48/30
f 16/32/31 1/33/1 17/50/4 32/49/32
s 2
f 2/2/33 1/1/34 33/67/35
f 3/3/36 2/2/33 33/67/35
f 4/4/37 3/3/36 33/67/35
f 5/5/38 4/4/37 33/67/35
f 6/6/39 5/5/38 33/67/35
f 7/7/40 6/6/39 33/67/35
f 8/8/41 7/7/40 33/67/35
f 9/9/42 8/8/41 33/67/35
f 10/10/43 9/9/42 33/67/35
f 11/11/44 10/10/43 33/67/35
f 12/12/45 11/11/44 33/67/35
f 13/13/46 12/12/45 33/67/35
f 14/14/47 13/13/46 33/67/35
f 15/15/48 14/14/47 33/67/35
f 16/16/49 15/15/48 33/67/35
f 1/1/34 16/16/49 33/67/35
s 3
f 17/65/50 18/64/51 34/68/52
f 18/64/51 19/63/53 34/68/52
f 19/63/53 20/62/54 34/68/52
f 20/62/54 21/61/55 34/68/52
f 21/61/55 22/60/56 34/68/52
f 22/60/56 23/59/57 34/68/52
f 23/59/57 24/58/58 34/68/52
f 24/58/58 25/57/59 34/68/52
f 25/57/59 26/56/60 34/68/52
f 26/56/60 27/55/61 34/68/52
f 27/55/61 28/54/62 34/68/52
f 28/54/62 29/53/63 34/68/52
f 29/53/63 30/52/64 34/68/52
f 30/52/64 31/51/65 34/68/52
f 31/51/65 32/66/66 34/68/52
f 32/66/66 17/65/50 34/68/52
